<?xml version="1.0" standalone="no"?>
<!DOCTYPE svg PUBLIC "-//W3C//DTD SVG 20010904//EN"
 "http://www.w3.org/TR/2001/REC-SVG-20010904/DTD/svg10.dtd">
<svg version="1.0" xmlns="http://www.w3.org/2000/svg"
 width="639.000000pt" height="639.000000pt" viewBox="0 0 639.000000 639.000000"
 preserveAspectRatio="xMidYMid meet">
<metadata>
Created by potrace 1.11, written by Peter Selinger 2001-2013
</metadata>
<g transform="translate(0.000000,639.000000) scale(0.100000,-0.100000)"
fill="#000000" stroke="none">
<path d="M1107 5523 c-98 -167 -138 -317 -142 -533 -3 -198 31 -383 111 -597
33 -89 130 -296 164 -350 12 -18 11 -29 -9 -80 -12 -32 -24 -66 -26 -76 -13
-56 -106 -206 -165 -267 -102 -106 -203 -148 -345 -145 -113 2 -185 21 -302
81 l-101 52 -7 -37 c-4 -20 -9 -47 -11 -61 -2 -14 -7 -35 -9 -48 -23 -101 -23
-296 0 -419 22 -117 67 -247 126 -361 27 -53 49 -97 49 -98 0 -3 -121 61 -200
105 -69 39 -100 53 -100 46 0 -3 54 -111 120 -242 104 -206 249 -445 307 -508
10 -11 34 -40 54 -65 52 -64 154 -166 229 -230 36 -30 67 -57 70 -60 19 -19
129 -95 203 -140 l87 -53 -97 -50 c-54 -27 -100 -52 -103 -56 -3 -3 -23 -19
-46 -34 -38 -26 -103 -87 -93 -87 3 0 23 9 45 19 49 24 324 118 383 132 40 9
54 7 128 -22 45 -18 80 -35 78 -38 -6 -6 -9 -6 -95 -15 -36 -4 -76 -9 -90 -11
-71 -9 -146 -18 -157 -18 -38 -1 9 -20 217 -87 126 -41 230 -77 230 -80 0 -3
-19 -16 -41 -30 -22 -14 -62 -45 -88 -70 -49 -46 -117 -131 -93 -116 7 4 36
23 65 42 29 19 102 59 162 89 l110 54 75 -15 c115 -23 136 -25 229 -29 134 -6
130 -5 96 -17 -72 -27 -215 -144 -256 -212 -18 -29 -28 -64 -11 -40 27 39 261
178 413 244 65 29 81 33 172 45 l48 6 78 -73 c94 -89 200 -149 213 -120 2 4
20 22 40 40 l36 34 53 -36 c90 -58 167 -79 294 -80 61 0 124 3 140 6 58 11
144 46 190 78 l46 32 44 -41 c25 -23 49 -41 54 -41 28 0 124 64 191 127 61 58
82 71 101 68 13 -3 49 -7 79 -10 30 -4 64 -9 75 -12 23 -6 214 -101 262 -129
17 -11 53 -32 80 -48 26 -16 67 -44 91 -63 47 -39 50 -37 23 9 -35 56 -113
128 -195 179 -44 27 -78 49 -76 49 3 1 39 3 80 5 97 5 126 9 235 30 l90 17 65
-30 c62 -28 201 -106 265 -147 l30 -20 -33 42 c-37 47 -106 115 -143 140 -13
9 -26 20 -29 23 -3 4 -13 9 -22 13 -20 7 -24 27 -6 27 20 0 428 135 428 142 0
3 -8 5 -17 4 -9 -2 -35 1 -57 5 -38 7 -94 14 -186 25 -19 2 -52 7 -73 10 l-39
6 94 38 93 37 70 -19 c97 -26 296 -94 362 -124 31 -13 58 -24 62 -24 11 1 -82
80 -137 116 -29 20 -91 54 -138 76 l-85 39 103 66 c167 105 368 280 475 413
15 19 30 37 33 40 22 20 180 244 180 256 0 3 9 18 19 33 25 35 251 484 246
489 -3 3 -94 -46 -262 -140 -18 -9 -33 -15 -33 -13 0 3 13 29 29 58 61 107
134 310 146 407 3 19 7 46 10 60 6 28 7 231 2 270 -2 14 -12 71 -22 127 l-18
102 -96 -49 c-128 -66 -220 -89 -336 -85 -122 5 -203 37 -289 116 -84 76 -156
195 -211 346 l-23 62 21 33 c85 138 180 363 227 532 24 87 23 84 43 208 14 86
15 335 2 388 -3 14 -10 45 -15 70 -12 65 -58 186 -92 250 -64 117 -68 122 -97
116 -14 -3 -46 -8 -71 -11 -25 -4 -70 -13 -100 -21 -30 -8 -60 -16 -67 -18 -7
-1 -16 -5 -19 -9 -4 -4 -15 -7 -23 -7 -29 0 -234 -107 -336 -175 -55 -37 -102
-70 -105 -74 -3 -3 -36 -32 -75 -63 -38 -31 -103 -88 -143 -126 l-73 -69 -67
25 c-84 30 -213 70 -285 87 -10 2 -26 6 -35 9 -9 3 -28 7 -42 10 -14 3 -50 10
-80 16 -30 5 -75 12 -100 15 -25 3 -56 7 -70 10 -22 5 -91 5 -350 3 -36 -1
-126 0 -200 1 -74 1 -145 -1 -157 -3 -12 -3 -46 -7 -75 -10 -29 -4 -64 -8 -78
-11 -101 -19 -141 -28 -185 -40 -27 -8 -61 -16 -75 -18 -22 -4 -205 -64 -252
-82 -11 -4 -33 10 -70 47 -272 267 -584 451 -845 497 -143 26 -125 32 -176
-56z"/>
</g>
</svg>
